<svg xmlns="http://www.w3.org/2000/svg" viewBox="0 0 320 240" role="img" aria-labelledby="title desc">
  <title id="title">Minh họa hồ sơ Nenkin</title>
  <desc id="desc">Hộ chiếu, biểu mẫu và đồng yên Nhật Bản</desc>
  <rect width="320" height="240" rx="28" fill="#F5F4FC"/>
  <rect x="42" y="58" width="112" height="146" rx="14" fill="#173D70"/>
  <circle cx="98" cy="112" r="25" fill="none" stroke="#fff" stroke-width="4"/>
  <path d="M75 112h46M98 87c10 8 16 15 16 25s-6 17-16 25c-10-8-16-15-16-25s6-17 16-25z" fill="none" stroke="#fff" stroke-width="3"/>
  <path d="M69 169h58" stroke="#BFD5F2" stroke-width="5" stroke-linecap="round"/>
  <rect x="132" y="34" width="142" height="166" rx="16" fill="#fff" stroke="#CAC7E8" stroke-width="3"/>
  <path d="M157 68h92M157 91h72M157 114h83M157 137h62" stroke="#A9A6CC" stroke-width="6" stroke-linecap="round"/>
  <path d="M158 171l15 15 30-35" fill="none" stroke="#1B8A6B" stroke-width="7" stroke-linecap="round" stroke-linejoin="round"/>
  <circle cx="252" cy="183" r="33" fill="#FFD56A"/>
  <path d="M252 165v36m-13-24h26m-26 12h26" stroke="#704B00" stroke-width="5" stroke-linecap="round"/>
</svg>
